<svg version="1.1" id="Layer_1" xmlns="http://www.w3.org/2000/svg" xmlns:xlink="http://www.w3.org/1999/xlink" x="0px" y="0px"
	 width="100%" viewBox="0 0 960 624" enable-background="new 0 0 960 624" xml:space="preserve">
<path fill="#000000" opacity="1.000000" stroke="none" 
	d="
M238.489563,360.485046 
	C227.391632,372.230652 216.427170,383.607819 205.839020,395.361847 
	C197.639709,404.463989 188.866638,413.724304 176.008606,416.118805 
	C165.271866,418.118317 153.244415,412.720764 149.785049,401.309845 
	C148.396957,396.731140 147.420624,392.027557 146.182053,387.082062 
	C142.620026,388.133270 139.592407,390.236298 136.259857,391.599701 
	C118.934929,398.687469 100.598198,387.705261 105.149529,363.159760 
	C107.291824,351.606262 111.583427,340.826843 115.386467,329.840698 
	C116.087463,327.815674 116.393951,325.628540 116.673965,323.488922 
	C117.179001,319.629913 116.324432,316.867920 112.545479,314.322906 
	C106.940300,310.547974 101.910988,305.791382 98.104248,299.983032 
	C95.418663,295.885345 92.421959,295.720551 88.606575,298.906525 
	C81.184212,305.104401 74.390182,311.858215 68.008873,319.559174 
	C73.499847,324.478516 77.151970,329.934265 77.780830,337.240784 
	C78.089554,340.827850 77.819473,344.237579 77.026512,347.619171 
	C76.053490,351.768677 73.306366,353.058075 69.491447,351.064606 
	C62.764511,347.549622 58.982704,341.689667 57.075127,333.517792 
	C52.261295,338.625641 46.851513,342.423767 44.251606,348.489319 
	C42.137703,353.421021 44.862000,358.332489 46.076878,362.973816 
	C48.817039,373.442383 51.385513,383.952240 53.508888,394.543304 
	C55.073116,402.345428 56.196335,410.384735 52.135464,417.977112 
	C51.224758,419.679810 50.498783,421.625000 47.914658,421.551880 
	C46.436928,418.595093 48.479584,416.201233 48.755070,413.694702 
	C49.996864,402.396210 46.123089,391.974945 43.790314,381.293488 
	C42.407379,374.961243 40.401737,368.752563 39.251743,362.384399 
	C36.556400,347.458801 39.972839,334.033173 51.238911,323.579620 
	C57.795208,317.496155 61.928513,309.677948 67.830574,303.199982 
	C73.664192,296.797180 79.387039,290.267548 86.565338,285.280640 
	C93.888329,280.193207 97.588814,280.768158 102.715012,287.649963 
	C97.526573,268.704193 105.065392,258.720184 125.352509,258.066437 
	C133.575714,257.801483 141.599396,259.247437 149.246140,262.487701 
	C157.067368,265.801910 164.932617,269.025482 173.310257,270.691528 
	C176.192490,271.264679 177.229309,272.905029 176.841705,275.672699 
	C176.182556,280.379486 175.297745,284.150482 169.467194,285.997375 
	C162.854828,288.091919 157.668518,293.373474 152.135101,297.642395 
	C143.288879,304.467163 134.445526,311.267609 123.983498,315.527863 
	C121.961411,316.351288 121.460442,317.628754 121.665504,319.828827 
	C122.279770,326.419495 120.980728,332.539917 117.703362,338.504852 
	C113.162460,346.769470 111.238876,356.031494 110.401070,365.320770 
	C109.608032,374.113586 119.611443,381.324982 129.209427,379.487915 
	C135.556107,378.273132 141.227982,375.367065 146.335602,371.613098 
	C152.224792,367.284729 157.916595,362.637756 163.337357,357.734680 
	C170.178543,351.546783 170.790482,347.258850 165.053055,340.280823 
	C161.401611,335.839874 161.447678,331.251587 161.800095,326.264374 
	C161.904388,324.788361 161.905380,323.098907 163.791565,322.656403 
	C165.415436,322.275421 166.063583,323.670135 166.927734,324.663086 
	C172.876572,331.498322 186.299316,330.489532 191.407089,322.883392 
	C192.146393,321.782440 192.115509,320.768982 191.847855,319.582184 
	C186.612579,296.369385 183.504227,272.719421 177.466995,249.671814 
	C177.390625,249.380264 177.091492,249.147064 176.820648,248.785583 
	C174.566635,248.183792 172.841202,249.980774 170.774734,250.354218 
	C169.462326,250.591370 168.009125,251.079697 167.308502,249.433792 
	C166.757919,248.140350 167.570572,246.870865 168.621155,246.539352 
	C176.628342,244.012650 175.468185,238.209229 174.906265,231.753937 
	C174.423294,226.205643 171.965103,220.680069 173.853760,214.975861 
	C174.376678,213.396530 174.924271,211.825348 175.465164,210.252029 
	C175.814270,209.236603 176.445847,208.425278 177.559799,208.372070 
	C178.860748,208.309952 179.761978,209.002167 180.139252,210.288635 
	C181.958328,216.491470 184.921280,222.376892 185.329620,228.970932 
	C185.409729,230.264572 184.980789,231.964783 186.597855,232.430435 
	C191.202866,233.756470 189.700348,236.782806 188.101944,238.991364 
	C185.440094,242.669296 185.971497,246.147293 186.793884,250.248444 
	C191.044556,271.445862 195.102707,292.685303 198.907364,313.967407 
	C201.039047,325.891449 194.868393,340.830872 176.300476,343.761719 
	C175.158859,345.252472 175.900696,346.967438 175.879837,348.571014 
	C175.774216,356.684631 172.524460,363.396637 166.885559,369.048218 
	C163.943741,371.996674 160.931213,374.875702 157.912476,377.745972 
	C151.966782,383.399139 152.129028,389.751129 157.487427,396.160706 
	C164.248062,404.247620 177.871857,403.012909 187.068222,396.568878 
	C196.208832,390.163879 202.895386,381.394409 210.786453,373.795471 
	C220.741547,364.208923 229.769531,353.694824 240.283463,344.662292 
	C251.106171,335.364380 263.206329,328.106750 275.857971,321.666626 
	C278.044403,320.553680 280.161682,319.304718 282.515900,318.005432 
	C280.402130,314.219788 276.876770,313.258362 273.976624,311.565002 
	C271.252441,309.974518 268.179535,308.976715 265.473572,307.360687 
	C259.924744,304.046844 256.264160,299.496979 255.703934,292.642883 
	C254.843109,282.111664 262.011505,277.008240 270.796326,276.820068 
	C289.491058,276.419708 308.029083,278.333649 326.386658,281.923065 
	C329.651794,282.561493 332.972565,282.983185 336.177734,283.840973 
	C339.057190,284.611572 343.377594,283.968109 343.851471,288.019409 
	C344.334503,292.148804 343.373749,296.494385 339.451721,299.082092 
	C331.536255,304.304596 323.903290,309.960236 315.481873,314.417145 
	C311.551910,316.497009 307.246277,317.962830 303.365082,321.175629 
	C306.712250,326.283966 307.967316,331.880157 307.010498,337.826508 
	C306.537231,340.767609 306.189758,344.053772 301.810577,343.693176 
	C300.467682,343.582611 299.629425,344.535156 299.105042,345.596497 
	C294.982391,353.941040 292.009918,362.749542 294.209259,372.011566 
	C296.796387,382.906738 308.338379,388.509094 319.474915,384.777527 
	C333.883820,379.949463 345.167725,370.290588 356.169678,360.284607 
	C357.687561,358.904144 357.915039,357.238525 357.218964,355.272827 
	C356.257416,352.557465 354.989502,349.939972 353.015717,347.954376 
	C348.517639,343.429321 349.268921,338.093872 350.732971,332.971863 
	C351.935577,328.764496 354.364502,331.538239 355.684937,333.131500 
	C359.795868,338.092010 364.613342,338.953827 370.439301,336.630188 
	C373.653931,335.348022 375.039642,333.479370 374.871216,329.858765 
	C374.265076,316.831329 371.348083,304.154999 369.328308,291.346405 
	C367.646393,280.680115 365.479523,270.089142 363.867004,259.413544 
	C363.256470,255.371719 361.488312,255.411545 358.418335,256.525116 
	C356.423096,257.248871 353.709869,260.100098 352.314880,257.467194 
	C350.706146,254.430969 354.720856,253.767776 356.597412,252.557419 
	C362.217529,248.932510 363.798645,242.749603 360.558075,233.285248 
	C358.851929,228.302231 360.237122,224.157257 362.515869,219.973892 
	C363.077209,218.943390 363.833893,217.933258 365.213928,218.110397 
	C366.584961,218.286423 366.932892,219.460068 367.373474,220.570084 
	C368.795532,224.153000 370.182892,234.123474 369.805939,239.039032 
	C372.403168,239.539459 374.840668,240.956238 373.161804,243.937454 
	C370.126282,249.327789 371.727722,254.663635 372.629425,260.003601 
	C375.952332,279.682068 379.992279,299.235962 381.954041,319.142090 
	C382.873993,328.476929 380.917450,336.993561 376.647736,345.133606 
	C374.844696,348.571075 371.168976,349.238403 367.995270,350.586182 
	C366.305481,351.303772 364.377289,351.694672 364.437042,354.124634 
	C364.700378,364.834229 358.690063,372.180542 351.159241,378.633057 
	C343.320007,385.349792 335.535645,392.156738 325.949402,396.429169 
	C317.667114,400.120453 309.364594,400.996338 300.834351,397.248962 
	C290.734802,392.812164 288.526825,383.674103 287.807892,374.233398 
	C286.997040,363.585632 289.602661,353.381256 294.746368,343.968964 
	C296.012909,341.651428 296.580231,339.857452 294.318909,337.877747 
	C291.465546,335.379761 290.608704,331.713837 289.327362,328.001984 
	C271.277954,337.316010 253.678741,346.667877 238.489563,360.485046 
M138.247528,273.208893 
	C129.685181,270.759521 121.219887,270.477692 112.855698,274.120392 
	C108.756027,275.905853 107.139832,278.235840 109.712364,282.624603 
	C112.316193,287.066711 114.549637,291.734528 116.060654,296.706360 
	C117.816589,302.484161 119.343773,303.283813 125.079651,300.831787 
	C135.756683,296.267517 144.836731,289.216766 153.731888,281.919952 
	C154.347427,281.415039 155.078918,280.865601 154.510666,279.416443 
	C149.547928,277.481750 144.292618,275.432983 138.247528,273.208893 
M321.200562,298.807129 
	C322.405975,297.833496 324.369751,297.708313 324.767609,295.753296 
	C312.061127,290.915100 270.518280,287.908234 263.980774,292.036957 
	C274.116516,298.523773 286.346741,301.406647 292.775543,312.499603 
	C302.311798,307.924744 311.444824,303.543365 321.200562,298.807129 
z"/>
<path fill="#000000" opacity="1.000000" stroke="none" 
	d="
M578.288574,377.676941 
	C571.613525,376.053528 565.335632,374.544250 559.170715,373.062103 
	C558.791321,373.515564 558.439514,373.740723 558.400879,374.010681 
	C557.161987,382.667175 554.727173,383.709167 547.227173,378.768646 
	C543.117126,376.061157 542.276306,375.003998 537.663330,366.649170 
	C529.947510,369.049591 523.559570,373.722870 517.272278,378.664886 
	C508.217316,385.782257 500.062622,393.856049 491.882416,401.918274 
	C486.914429,406.814545 481.060242,410.215485 474.199982,411.720703 
	C466.321899,413.449280 460.025543,408.397491 459.648468,400.292236 
	C459.112396,388.768036 464.543884,379.847839 471.821777,371.683289 
	C472.810638,370.573975 473.812805,369.476501 475.526642,367.578644 
	C468.735596,366.742157 464.276398,362.933350 459.684631,358.112335 
	C452.047577,369.724945 442.577240,378.903961 428.403778,371.075806 
	C414.166138,363.212250 415.344360,349.317657 418.886627,335.258209 
	C415.828491,336.057434 415.538910,338.173645 414.899689,340.130920 
	C413.120941,345.577026 413.453125,351.332428 412.318420,356.880249 
	C411.262634,362.042358 409.207764,366.734955 406.377533,371.081818 
	C402.401764,377.187988 396.916718,377.723389 391.796844,372.646362 
	C390.857941,371.715302 390.009247,370.653564 389.299316,369.537384 
	C381.572266,357.388702 383.146423,333.122314 390.270111,320.052765 
	C393.409943,320.992920 392.824799,323.390228 392.457214,325.647125 
	C391.252228,333.045105 390.372528,340.461365 390.749725,347.983795 
	C390.964355,352.264435 391.978546,356.235016 395.105469,359.340210 
	C396.858154,361.080688 398.789307,363.193848 401.540131,362.218323 
	C404.303925,361.238281 405.387329,358.607178 405.686798,355.845459 
	C406.461090,348.704834 408.244324,341.770355 409.921112,334.822357 
	C411.181030,329.601624 413.168793,324.697876 417.217377,320.842438 
	C419.392151,318.771484 421.824554,318.035370 424.518219,319.062561 
	C427.175018,320.075714 427.156830,322.608734 427.128265,325.001862 
	C427.077637,329.242981 425.688660,333.151428 424.346954,337.108521 
	C421.564728,345.314331 426.052521,355.553314 433.664948,359.191010 
	C441.229004,362.805634 453.673340,356.795258 453.923981,345.743530 
	C454.103455,337.829315 452.935303,330.153687 450.857880,322.583893 
	C449.689056,318.324951 450.532349,314.340729 452.124237,310.432556 
	C452.669739,309.093414 453.252655,307.455902 455.180420,307.638855 
	C457.062469,307.817474 457.386627,309.509552 457.805847,310.904480 
	C460.448273,319.697571 461.962769,328.743469 463.124634,337.809875 
	C463.899811,343.858856 466.350006,348.500031 471.334991,351.919861 
	C473.352570,353.303955 475.508453,353.910187 477.929077,353.744354 
	C484.063202,353.324066 485.973999,350.710205 482.977173,345.450684 
	C477.578064,335.975006 474.634216,325.607635 471.069611,315.457886 
	C469.552734,311.138855 471.924469,307.344452 473.412903,303.516846 
	C473.802826,302.514160 475.227234,302.167084 475.976440,302.946259 
	C478.598938,305.673645 482.782013,308.533508 481.882019,312.236572 
	C480.676727,317.195740 482.916656,320.628998 484.520264,324.488007 
	C486.561707,329.400818 489.073486,334.118744 491.099121,339.037415 
	C494.876526,348.209900 492.391541,358.017365 484.681458,364.139038 
	C475.714081,371.259003 468.778290,379.735657 465.851746,391.029572 
	C465.237823,393.398743 464.152527,395.994904 466.316345,398.110382 
	C468.529846,400.274445 471.037872,398.888702 473.365051,398.182251 
	C482.283325,395.474854 488.983521,389.574768 495.310059,383.037842 
	C506.354492,371.626129 518.284363,361.328369 532.825134,354.487213 
	C533.126221,354.345581 533.535828,354.255127 533.691956,354.011017 
	C537.885498,347.454773 541.549377,351.047058 546.430847,353.761658 
	C557.709229,360.033752 570.406982,362.488312 582.924744,365.333435 
	C623.356384,374.523193 664.213318,376.505493 705.516479,374.102509 
	C733.961121,372.447693 762.285950,370.181305 790.261047,364.707153 
	C814.935791,359.878784 839.448059,354.371552 862.613098,344.149597 
	C867.645325,341.929077 869.354980,343.092682 870.151550,348.814453 
	C870.952209,354.565582 873.406677,356.252594 879.035095,354.789703 
	C883.397705,353.655823 886.683838,350.914551 889.560303,347.556610 
	C891.287659,345.540131 893.099365,343.585510 894.995361,341.727814 
	C896.101929,340.643494 897.570496,339.995880 899.104675,340.795654 
	C900.631226,341.591461 900.758057,343.141815 900.762817,344.694733 
	C900.781189,350.741028 902.943298,351.917145 908.246582,349.046143 
	C911.714417,347.168762 913.170532,343.737244 915.318604,340.814667 
	C916.472046,339.245270 917.368896,337.162018 919.889038,337.579498 
	C922.533020,338.017487 922.395142,340.056122 922.638245,342.139526 
	C923.000549,345.244171 925.285706,346.146851 928.131531,345.774780 
	C931.097900,345.386932 931.496887,343.376129 930.805359,340.991333 
	C928.252502,332.186371 927.420532,323.035217 925.357849,314.152740 
	C924.163208,309.008453 925.547913,304.575012 927.249084,300.098724 
	C928.221619,297.539551 930.602234,297.378021 931.646057,299.852051 
	C933.276062,303.715607 935.517029,307.443848 934.457520,312.175690 
	C933.093872,318.266113 935.663391,324.051971 937.335144,329.722809 
	C939.639526,337.539185 939.047913,344.763916 935.365723,351.939301 
	C931.468079,359.534668 924.719666,361.345093 917.589294,356.545898 
	C917.054504,356.185974 916.479187,355.886353 915.972656,355.588043 
	C904.186951,366.247589 901.048279,366.714203 891.942261,358.824524 
	C887.541870,363.895874 882.240295,367.744019 875.327637,368.747528 
	C868.972534,369.670105 865.653198,367.168091 861.216614,357.861389 
	C857.120117,358.278809 853.372437,360.178589 849.560425,361.596405 
	C831.714966,368.234009 813.300171,372.735413 794.720398,376.639130 
	C746.372498,386.797363 697.415344,389.611938 648.189026,387.866211 
	C624.728577,387.034241 601.518860,383.461151 578.288574,377.676941 
z"/>
<path fill="#000000" opacity="1.000000" stroke="none" 
	d="
M219.929657,292.276489 
	C223.141342,309.704742 226.070938,326.732086 225.346893,344.147278 
	C225.193222,347.843079 224.715698,351.436401 223.111679,354.789581 
	C222.550003,355.963776 221.852448,357.318268 220.179489,356.972687 
	C218.551331,356.636292 218.265228,355.262848 218.325287,353.869171 
	C219.550858,325.424225 210.886948,298.383179 206.503708,270.736115 
	C206.280090,269.325592 206.182709,267.725494 204.949295,266.781525 
	C202.497833,265.695374 200.289856,269.299744 197.964676,267.044586 
	C197.462326,265.724548 198.115005,264.733032 198.994919,264.423126 
	C204.740417,262.399597 204.817474,258.206909 203.727448,253.242798 
	C202.451492,247.431961 203.813019,241.375275 201.818207,235.506073 
	C200.623245,231.990295 202.594116,228.292023 203.935501,224.922302 
	C204.978302,222.302628 207.190796,222.306366 208.321991,224.745972 
	C211.856995,232.369827 215.215088,240.100327 216.017593,248.842117 
	C220.668671,250.477173 221.674438,254.215485 217.435760,258.495117 
	C214.598602,261.359680 214.603973,263.922089 215.327957,267.386749 
	C217.024155,275.504089 218.354797,283.697784 219.929657,292.276489 
z"/>
<path fill="#000000" opacity="1.000000" stroke="none" 
	d="
M388.791565,242.161346 
	C387.503998,237.326492 388.641266,233.188934 390.232056,229.122940 
	C390.811340,227.642441 390.980957,225.628418 393.215515,225.661621 
	C395.265533,225.692093 395.953766,227.353363 396.442352,228.969818 
	C398.897522,237.092529 403.484650,245.014145 398.382690,253.721527 
	C401.456787,254.924316 401.433350,250.961624 404.055237,251.554413 
	C406.275146,254.525681 403.530548,256.646423 401.951019,258.465607 
	C399.887024,260.842865 399.480469,263.064758 399.803131,266.142212 
	C402.017944,287.269318 406.390472,308.182037 406.156616,329.557220 
	C406.088959,335.744202 405.737366,341.846161 403.197418,347.610260 
	C402.584198,349.001862 401.972473,350.612152 400.077454,350.188904 
	C398.075226,349.741730 398.442657,347.951660 398.559662,346.491089 
	C400.195801,326.072876 396.540680,306.055054 394.048920,285.944763 
	C393.300293,279.902771 393.262543,273.753448 391.411926,268.030945 
	C389.440186,267.552704 388.116119,268.395630 386.711670,268.816803 
	C385.511566,269.176666 384.360504,269.288055 383.737549,267.917725 
	C383.267731,266.884155 383.543274,265.696411 384.467010,265.274078 
	C394.152313,260.845673 390.511627,253.162109 389.270203,246.047745 
	C389.070557,244.903656 388.963898,243.743347 388.791565,242.161346 
z"/>
<path fill="#000000" opacity="1.000000" stroke="none" 
	d="
M508.020752,299.926178 
	C509.581390,316.944336 511.723907,333.454773 512.011963,350.105530 
	C512.095703,354.945465 511.430023,359.744080 509.580750,364.285522 
	C508.902374,365.951538 508.332458,368.150238 505.985077,367.721558 
	C503.594879,367.285034 503.646698,364.921814 503.966187,363.233612 
	C505.573029,354.742889 504.432220,346.307556 503.672424,337.876373 
	C502.331207,322.993256 500.822876,308.125214 499.362946,293.028412 
	C493.901581,292.736450 490.056061,298.818970 484.394714,296.683746 
	C483.593811,293.583740 485.772949,292.706024 487.633514,291.667023 
	C499.488251,285.046936 500.944092,281.790833 496.883789,268.327148 
	C495.542419,263.879211 495.721222,259.859711 497.423676,255.720016 
	C498.047974,254.201965 498.370422,252.243362 500.502563,252.314209 
	C502.232452,252.371674 503.007568,253.928314 503.432159,255.369690 
	C505.558197,262.586945 509.693390,269.573517 506.489044,277.720612 
	C507.016327,276.862122 507.501587,275.973846 508.082489,275.153290 
	C508.700012,274.280945 509.539948,273.733185 510.636749,274.245239 
	C511.670532,274.727844 512.056091,275.690491 511.843903,276.738708 
	C511.548401,278.198578 511.491852,279.996643 510.600098,280.995880 
	C506.708649,285.356506 506.642670,290.219513 507.933929,295.475922 
	C508.243286,296.735291 508.001862,298.129974 508.020752,299.926178 
z"/>
<path fill="#000000" opacity="1.000000" stroke="none" 
	d="
M281.683228,233.618515 
	C298.609955,226.953888 315.387054,221.007935 332.337097,215.558807 
	C334.642883,214.817520 338.112427,212.455780 339.310638,215.908325 
	C340.625580,219.697189 336.234344,220.052063 333.861115,220.862747 
	C305.670898,230.492279 277.618744,240.468948 250.683121,253.295715 
	C245.605988,255.713440 240.443802,258.164764 236.848068,262.823914 
	C236.236877,263.615845 235.442963,264.256287 234.322174,264.208588 
	C232.061523,260.721497 233.090073,256.804199 237.467285,254.112640 
	C241.712433,251.502243 246.145081,249.159561 250.639877,247.000015 
	C260.686066,242.173279 270.849396,237.596619 281.683228,233.618515 
z"/>
<path fill="#000000" opacity="1.000000" stroke="none" 
	d="
M140.412445,221.359116 
	C145.341934,219.666229 149.897232,218.081787 154.478348,216.575867 
	C156.488861,215.914963 158.955307,214.683334 159.868286,217.791168 
	C160.689880,220.587906 158.291794,221.486557 156.218689,222.233353 
	C151.060043,224.091599 145.844574,225.795776 140.711746,227.721329 
	C118.903648,235.902573 97.215652,244.380371 76.579681,255.278442 
	C73.108688,257.111511 69.916359,259.472260 66.170700,261.859802 
	C64.095581,257.550446 65.772079,254.729095 68.917191,252.814423 
	C74.170410,249.616318 79.455872,246.343048 85.073792,243.895752 
	C103.215477,235.992844 121.482697,228.372635 140.412445,221.359116 
z"/>
<path fill="#000000" opacity="1.000000" stroke="none" 
	d="
M942.928528,393.130219 
	C932.464783,396.101685 922.381165,398.972321 912.266113,401.727539 
	C910.278015,402.269104 907.488892,403.256714 906.879456,400.273956 
	C906.345703,397.661682 909.016663,396.714111 911.097229,396.193787 
	C917.851746,394.504364 924.557312,392.689270 931.512939,390.112061 
	C929.684021,386.332428 926.317139,384.257050 923.999756,381.337616 
	C921.656006,378.385101 923.601135,369.348694 926.976135,367.834656 
	C928.434021,367.180634 929.582397,367.890564 930.558533,368.867645 
	C931.733948,370.044189 932.792664,371.336426 933.950073,372.531921 
	C940.692871,379.497223 940.697632,379.492615 936.298401,388.375519 
	C938.763794,388.993561 940.857422,387.698486 943.051025,387.366608 
	C944.846313,387.095001 947.018677,386.233582 947.830322,388.511200 
	C948.527771,390.468384 946.530334,391.293121 945.094177,392.113770 
	C944.517090,392.443512 943.897766,392.699432 942.928528,393.130219 
z"/>
<path fill="#000000" opacity="1.000000" stroke="none" 
	d="
M477.235901,265.315369 
	C459.778900,271.463654 442.607666,277.260162 425.977753,284.523254 
	C422.889587,285.872009 420.193817,287.769104 417.311371,289.404083 
	C416.176300,290.047913 414.894867,290.963928 413.696503,289.693909 
	C412.430847,288.352539 413.002380,286.773102 413.918823,285.579010 
	C416.422852,282.316254 420.066040,280.524567 423.659912,278.853210 
	C438.917511,271.757568 454.910736,266.629486 470.889618,261.476959 
	C474.996490,260.152618 479.105560,258.833038 483.235382,257.583008 
	C484.539368,257.188324 486.002686,257.024750 486.675812,258.616058 
	C487.399017,260.325928 486.421997,261.657288 485.025513,262.316589 
	C482.632355,263.446411 480.087646,264.255280 477.235901,265.315369 
z"/>
<path fill="#000000" opacity="1.000000" stroke="none" 
	d="
M84.521820,404.642334 
	C79.107834,404.348755 75.047791,401.183350 71.598717,398.233154 
	C68.020996,395.172913 72.045143,391.220642 73.484138,387.963013 
	C74.880463,384.802063 77.349396,386.404938 79.349770,387.660339 
	C81.725479,389.151276 83.944679,390.929260 86.778122,391.376190 
	C93.038620,383.883728 92.960442,384.006897 101.972870,389.728210 
	C106.503181,392.604126 104.210556,395.891266 102.782745,398.817566 
	C98.296852,408.011353 93.818237,398.375916 89.086838,398.631104 
	C87.728149,400.506989 86.289719,402.492950 84.521820,404.642334 
z"/>
<path fill="#000000" opacity="1.000000" stroke="none" 
	d="
M443.785767,302.035217 
	C436.958038,305.018250 433.111237,302.595001 433.835266,295.802551 
	C434.214844,292.241943 434.051361,288.209076 437.309296,285.509521 
	C440.078613,286.854675 439.339783,289.048096 439.476959,290.926666 
	C439.604584,292.674591 438.525177,294.532410 440.093597,296.394989 
	C442.114136,296.269989 443.466858,295.718903 442.802734,293.107147 
	C442.482330,291.847076 442.210815,290.468262 442.393616,289.212555 
	C442.642670,287.501068 442.646698,285.251831 445.182678,285.140930 
	C447.341309,285.046478 448.293671,286.669983 449.137390,288.398468 
	C450.054108,290.276459 449.243896,292.803436 451.722626,294.583740 
	C452.937988,290.885956 449.975159,286.050781 454.695282,283.648315 
	C458.757904,289.203369 458.924133,294.337738 455.072357,299.129059 
	C453.330750,301.295502 451.088165,302.842529 448.114960,301.392334 
	C446.591095,300.649109 445.291656,300.510101 443.785767,302.035217 
z"/>
<path fill="#000000" opacity="1.000000" stroke="none" 
	d="
M343.692810,343.894653 
	C348.053925,343.881927 345.833344,346.498718 344.937958,347.200348 
	C338.430145,352.299561 332.114014,357.808258 323.969482,360.259338 
	C320.440216,361.321472 318.658386,359.985291 318.660156,356.095245 
	C318.662109,351.853302 320.820190,348.543640 322.975525,344.998718 
	C319.244080,344.071472 319.379303,341.961060 321.248352,339.545349 
	C323.370270,336.802826 329.544312,335.827454 331.684265,337.776367 
	C334.094238,339.971191 333.437042,343.482483 330.081696,346.831390 
	C328.242310,348.667206 325.914734,350.132416 324.629028,354.413788 
	C331.569366,350.573303 337.472870,347.306519 343.692810,343.894653 
z"/>
<path fill="#000000" opacity="1.000000" stroke="none" 
	d="
M418.121033,385.059509 
	C421.372742,384.090668 424.237183,383.208893 427.131165,382.438141 
	C428.713379,382.016754 430.231842,382.302704 430.882507,383.996552 
	C431.563019,385.768097 430.375732,386.923553 428.982330,387.577087 
	C427.035065,388.490265 424.968903,389.162354 422.926636,389.858337 
	C412.212036,393.509827 401.508606,397.196472 390.750824,400.716644 
	C388.784363,401.360107 385.945892,403.153534 384.898773,399.726959 
	C383.986481,396.741547 386.684601,395.784271 388.917999,395.015320 
	C398.516907,391.710754 408.134979,388.461975 418.121033,385.059509 
z"/>
<path fill="#000000" opacity="1.000000" stroke="none" 
	d="
M886.341919,293.293549 
	C887.571411,291.943024 888.491882,290.710388 889.689941,289.876556 
	C892.041870,288.239655 894.333984,288.881012 895.711121,291.157501 
	C897.255310,293.710052 895.335327,295.674072 893.243286,296.045776 
	C889.713196,296.672943 889.341492,299.135315 888.679199,301.725983 
	C887.981262,304.455933 887.273438,307.188538 886.412659,309.869446 
	C885.992004,311.179443 885.000305,312.201385 883.508972,312.280182 
	C881.836060,312.368561 881.218201,311.098663 880.887390,309.759460 
	C879.884583,305.699554 877.652466,302.582764 874.161011,300.256561 
	C871.999084,298.816101 871.370178,296.655640 871.955383,294.108917 
	C872.860657,290.169556 875.226746,289.223572 878.447144,291.650085 
	C879.499695,292.443237 880.395569,293.461121 881.289246,294.443420 
	C882.060608,295.291382 882.727173,296.234741 883.401917,297.087738 
	C885.414490,296.565918 885.338562,294.743591 886.341919,293.293549 
z"/>
<path fill="#000000" opacity="1.000000" stroke="none" 
	d="
M261.104126,377.117920 
	C252.011505,380.906281 243.295288,384.601105 234.521057,388.152588 
	C232.847336,388.830048 230.457016,390.547180 229.342453,387.860657 
	C228.297836,385.342743 230.030472,383.518921 232.486526,382.530548 
	C243.116455,378.252777 253.737778,373.953674 264.364838,369.668762 
	C264.825836,369.482880 265.302032,369.294159 265.788483,369.218811 
	C268.155731,368.852020 271.325165,367.375641 272.321777,370.487823 
	C273.442200,373.986786 269.689392,373.966248 267.571320,374.847015 
	C265.583221,375.673706 263.501129,376.274384 261.104126,377.117920 
z"/>
<path fill="#000000" opacity="1.000000" stroke="none" 
	d="
M489.082611,251.815674 
	C487.392120,251.761505 486.027985,251.437927 484.787964,251.700470 
	C482.946686,252.090302 480.660431,253.882660 480.112366,250.617355 
	C479.627228,247.726791 481.105988,244.910126 484.245758,244.965485 
	C487.884491,245.029648 491.212097,245.678513 492.107910,240.886612 
	C492.153809,240.640991 492.720978,240.236313 492.822540,240.294540 
	C497.231476,242.821960 499.899292,238.006027 503.631378,237.755096 
	C505.843658,237.606339 508.056671,237.597122 509.314545,239.865570 
	C510.547760,242.089478 509.148682,243.830872 507.717529,245.133072 
	C503.683411,248.803665 499.676147,252.675079 493.384460,251.433182 
	C492.150574,251.189636 490.774841,251.664810 489.082611,251.815674 
z"/>
<path fill="#000000" opacity="1.000000" stroke="none" 
	d="
M195.495026,347.496155 
	C198.557907,349.498901 201.242340,351.439484 204.039230,353.201569 
	C207.874069,355.617676 208.233719,358.431915 205.180359,363.255951 
	C203.093948,366.552368 200.653046,368.026001 197.093903,365.120453 
	C195.688599,363.973145 194.068481,363.093170 192.595093,362.024048 
	C190.671387,360.628204 187.236923,359.665222 188.406631,356.712036 
	C189.806229,353.178436 190.099884,348.396667 195.495026,347.496155 
z"/>
<path fill="#000000" opacity="1.000000" stroke="none" 
	d="
M84.726517,358.644775 
	C87.596939,357.237640 90.088348,355.903900 92.652145,354.727936 
	C94.445770,353.905212 96.619232,352.764404 97.863182,355.252136 
	C99.047371,357.620300 97.092621,358.935425 95.310318,359.900330 
	C87.715141,364.012421 79.724281,367.378204 72.419685,372.041321 
	C70.739197,373.114136 69.050575,374.174866 67.348969,375.213776 
	C66.157959,375.940918 64.892761,376.467010 63.760338,375.180695 
	C62.540924,373.795593 62.964523,372.287292 64.000137,371.113678 
	C64.968529,370.016266 66.173584,369.044037 67.444473,368.311707 
	C73.055603,365.078156 78.728127,361.951141 84.726517,358.644775 
z"/>
<path fill="#000000" opacity="1.000000" stroke="none" 
	d="
M563.199463,389.240417 
	C552.442688,393.026978 541.946106,396.546814 531.425415,399.992950 
	C530.165222,400.405762 528.624634,400.516785 528.085205,398.844330 
	C527.502441,397.037384 528.294861,395.444031 529.883240,394.647400 
	C531.941101,393.615326 534.179321,392.937073 536.352722,392.141815 
	C543.827454,389.407013 551.503418,387.356598 559.236694,385.519684 
	C562.012634,384.860352 564.468689,384.837372 563.199463,389.240417 
z"/>
<path fill="#000000" opacity="1.000000" stroke="none" 
	d="
M286.112854,264.313568 
	C284.661316,261.365875 287.243652,261.277832 288.891266,260.094604 
	C287.198822,258.676056 282.926758,259.799072 284.211243,255.932098 
	C285.288940,252.687653 286.936829,249.825363 291.293457,250.490845 
	C293.737549,250.864166 296.273712,250.655502 298.708313,251.065704 
	C302.891235,251.770493 304.360596,255.322433 301.345245,258.215057 
	C297.276184,262.118500 292.441406,264.984314 286.112854,264.313568 
z"/>
<path fill="#000000" opacity="1.000000" stroke="none" 
	d="
M135.228271,335.936493 
	C141.139099,337.705627 141.312164,339.031769 136.810440,346.717224 
	C141.363251,346.917877 143.704330,341.746765 148.188110,342.171021 
	C147.163071,347.106262 140.095459,353.342834 135.706146,353.303162 
	C134.748932,353.294495 133.585068,353.206909 132.873718,352.676453 
	C128.403091,349.342651 132.598099,343.972961 129.939056,339.771332 
	C128.780563,337.940765 132.698425,336.778503 135.228271,335.936493 
z"/>
<path fill="#000000" opacity="1.000000" stroke="none" 
	d="
M356.469482,301.168121 
	C361.540680,301.448303 361.695648,305.465698 361.756683,308.590332 
	C361.819397,311.802063 358.936096,312.489197 355.985626,312.504608 
	C346.281281,312.555298 346.281555,312.607666 348.110901,301.886505 
	C350.832458,302.507294 353.288696,300.075195 356.469482,301.168121 
z"/>
<path fill="#000000" opacity="1.000000" stroke="none" 
	d="
M439.086548,253.992859 
	C437.828094,249.536102 435.839294,245.988251 432.586060,243.174469 
	C431.199615,241.975372 430.007172,240.577011 429.905273,238.578156 
	C429.845337,237.403152 429.760345,236.188950 430.793091,235.374924 
	C431.880280,234.517990 432.959656,235.044876 434.034363,235.576508 
	C439.630280,238.344635 445.536804,250.882584 444.122925,257.075623 
	C443.749878,258.709656 443.340576,260.357544 441.045776,260.303345 
	C439.038727,258.751648 440.172241,256.217834 439.086548,253.992859 
z"/>
<path fill="#000000" opacity="1.000000" stroke="none" 
	d="
M163.320145,309.865906 
	C160.192352,306.542389 161.500977,303.230865 162.220932,299.796448 
	C166.263565,299.272095 165.591232,302.701782 166.745804,304.694885 
	C168.023407,302.826752 166.465469,299.432709 169.390732,298.945007 
	C171.834488,298.537598 171.695663,301.193054 172.393906,302.917023 
	C173.506714,301.494812 171.927322,298.747528 175.258057,298.223999 
	C176.635223,301.420654 178.560791,305.260223 175.925568,308.050171 
	C172.827927,311.329651 168.126617,311.677124 163.320145,309.865906 
z"/>
<path fill="#000000" opacity="1.000000" stroke="none" 
	d="
M325.857056,256.316345 
	C327.283142,250.797958 329.217041,246.121735 334.671783,243.250320 
	C336.552887,248.749435 330.221802,251.295792 331.619171,255.758453 
	C333.601959,256.611511 334.049957,253.837723 336.117645,254.568832 
	C338.131775,256.796722 337.269592,259.236969 335.559784,261.415009 
	C333.945679,263.471130 331.704834,264.869598 329.000885,263.820618 
	C325.789154,262.574646 325.456421,259.736816 325.857056,256.316345 
z"/>
<path fill="#000000" opacity="1.000000" stroke="none" 
	d="
M236.564270,303.257599 
	C236.824310,297.928833 234.669403,293.951569 231.500626,290.373840 
	C229.551773,288.173492 227.650085,285.009674 230.141296,283.070557 
	C232.842667,280.967804 235.390915,283.982300 236.882263,286.307526 
	C240.337692,291.694946 240.772781,297.796021 240.222336,304.005768 
	C240.117508,305.188385 239.722504,306.477997 238.304138,306.507385 
	C236.338867,306.548157 236.592697,304.928314 236.564270,303.257599 
z"/>
<path fill="#000000" opacity="1.000000" stroke="none" 
	d="
M64.180481,287.309082 
	C62.356483,287.816986 60.866917,288.325867 60.024029,286.353546 
	C60.559883,283.832703 63.174847,283.673370 64.987732,282.029388 
	C63.466045,280.977814 62.040897,282.071014 60.721397,281.938599 
	C59.157330,281.781647 57.563786,281.625366 57.425388,279.659393 
	C57.294525,277.800446 58.222622,276.217346 60.104797,276.013641 
	C62.900669,275.711029 65.768921,275.603241 68.561974,275.872681 
	C71.802444,276.185272 72.764771,278.208496 71.473213,281.210419 
	C70.134583,284.321747 67.763283,286.260223 64.180481,287.309082 
z"/>
<path fill="#000000" opacity="1.000000" stroke="none" 
	d="
M363.930969,381.029480 
	C365.259460,379.386414 366.056946,377.653412 368.430786,377.156464 
	C369.563385,382.761108 363.876312,385.820312 363.729767,390.389771 
	C365.254150,392.696686 367.020264,389.944427 368.743591,391.397522 
	C369.916901,393.998596 369.269714,396.265259 366.180023,397.350922 
	C363.211548,398.393921 361.391083,396.543610 360.390198,394.076080 
	C358.362915,389.078125 361.010437,385.164337 363.930969,381.029480 
z"/>
<path fill="#000000" opacity="1.000000" stroke="none" 
	d="
M450.128540,400.186951 
	C448.146698,402.073273 446.194366,402.887024 444.032837,401.443695 
	C441.836517,399.977142 441.419434,397.717682 441.778442,395.253632 
	C442.404633,390.955536 446.045624,386.032959 450.170898,384.126648 
	C451.000977,388.216217 447.737549,390.814392 446.680115,394.562225 
	C449.429230,395.161255 452.166321,396.110901 450.128540,400.186951 
z"/>
<path fill="#000000" opacity="1.000000" stroke="none" 
	d="
M275.943420,400.226685 
	C271.764648,394.275726 274.753174,384.238281 281.713654,380.644867 
	C282.062134,383.978882 279.967926,386.350250 279.072357,389.048615 
	C278.188049,391.713165 276.505341,394.503296 281.068024,395.592712 
	C282.407013,395.912415 282.692017,397.322327 282.070587,398.463226 
	C280.782867,400.827301 278.836456,401.682251 275.943420,400.226685 
z"/>
<path fill="#000000" opacity="1.000000" stroke="none" 
	d="
M227.564484,238.781647 
	C228.525131,234.128403 228.186905,229.125946 233.766876,226.800766 
	C235.064407,230.917694 230.713074,233.849625 232.782318,237.978867 
	C233.586929,239.008575 235.329544,236.886780 236.996780,238.726715 
	C237.666000,241.347382 236.182083,243.356934 233.258347,243.902786 
	C229.828995,244.543060 228.129227,242.362885 227.564484,238.781647 
z"/>
<path fill="#000000" opacity="1.000000" stroke="none" 
	d="
M97.135201,326.822845 
	C96.981461,327.908142 96.539627,329.181519 97.767067,328.947296 
	C99.282860,328.658051 100.979797,326.898499 101.790123,329.475006 
	C102.426819,331.499420 101.592857,333.674072 99.704887,334.637634 
	C97.103157,335.965485 94.399147,335.470734 92.556969,333.059967 
	C90.296997,330.102509 92.267921,323.327728 95.929741,321.069000 
	C97.967262,322.488800 97.097260,324.611847 97.135201,326.822845 
z"/>
<path fill="#000000" opacity="1.000000" stroke="none" 
	d="
M243.900070,332.847595 
	C242.961075,334.702576 241.975708,336.078583 239.954483,335.378357 
	C238.245087,334.786102 237.213272,333.373291 237.172195,331.640137 
	C237.102768,328.711273 237.678680,325.902588 240.675919,322.386444 
	C240.598633,327.094360 243.148071,329.422577 243.900070,332.847595 
z"/>
</svg>